<svg xmlns="http://www.w3.org/2000/svg" version="1.1" xmlns:xlink="http://www.w3.org/1999/xlink" xmlns:svgjs="http://svgjs.dev/svgjs" width="1920" height="1080" preserveAspectRatio="none" viewBox="0 0 1920 1080"><g mask="url(&quot;#SvgjsMask1023&quot;)" fill="none"><path d="M1280.32 0C1338.55 29.11 1316.01 135 1350 135C1383.57 135 1358.33 28.56 1415.45 0C1493.33 -38.94 1517.72 0 1620 0C1749.81 0 1790.89 -44.36 1879.62 0C1925.89 23.14 1884.47 135 1890 135C1895.53 135 1855.28 23.23 1901.74 0C1990.28 -44.27 2078.01 -47.14 2160 0C2207.14 27.11 2204 102.06 2160 148.5C2076.1 237.06 2026.92 203.62 1904.21 270C1891.92 276.65 1892.85 280.74 1890 294.55C1864.98 415.74 1848.46 420.44 1848.46 540C1848.46 584.07 1856.54 621.82 1890 621.82C1952.31 621.82 1967.19 584.47 2040 540C2102.19 502.02 2121.76 456.92 2160 456.92C2181.76 456.92 2160 498.46 2160 540C2160 583.2 2176.37 587.89 2160 626.4C2118.99 722.89 2045.25 734.94 2045.25 810C2045.25 854.06 2138.71 814.54 2160 864.64C2196.08 949.54 2219.9 1032.22 2160 1080C2084.9 1139.9 2025 1080 1890 1080C1782 1080 1781.95 1081.46 1674 1080C1646.95 1079.63 1646.83 1076.35 1620 1076.35C1612.73 1076.35 1613.11 1079.9 1605.79 1080C1478.11 1081.73 1477.89 1080 1350 1080C1248.75 1080 1246.06 1091.83 1147.5 1080C1111.06 1075.63 1115.37 1059.65 1080 1047.6C946.62 1002.15 933.51 954.91 810 965C735.14 971.11 756.75 1048.7 683.27 1080C621.75 1106.2 611.63 1080 540 1080C405 1080 405 1080 270 1080C135 1080 67.5 1147.5 0 1080C-67.5 1012.5 0 945 0 810C0 675 0 675 0 540C0 405 0 405 0 270C0 135 -67.5 67.5 0 0C67.5 -67.5 135 0 270 0C405 0 405 0 540 0C675 0 675 0 810 0C945 0 945 0 1080 0C1180.16 0 1203.55 -38.39 1280.32 0" stroke="rgba(120, 109, 70, 0.18)" stroke-width="2"></path><path d="M270 456.34C221.87 474.54 200.93 490.65 200.93 540C200.93 661.61 194.51 784.16 270 798.26C364.04 815.82 393.71 676.79 540 603.33C650.86 547.66 784.29 585.76 784.29 540C784.29 489.97 669.1 432.75 540 411.75C411.95 390.92 391.41 410.42 270 456.34" stroke="rgba(120, 109, 70, 0.18)" stroke-width="2"></path><path d="M1350 698.82C1311.07 698.82 1262.77 751.68 1262.77 810C1262.77 879.96 1311.74 955.38 1350 955.38C1385.52 955.38 1410.32 881.12 1410.32 810C1410.32 752.84 1384.85 698.82 1350 698.82" stroke="rgba(120, 109, 70, 0.18)" stroke-width="2"></path><path d="M132.13 270C52.2 183.68 51.2 174.3 0 69.68C-14.87 39.3 -27.69 7.15 0 0C107.31 -27.69 135 0 270 0C405 0 405 0 540 0C617.56 0 633.13 -32.62 695.11 0C768.13 38.43 737.74 89.48 810 142.11C923.08 224.48 940.15 203.1 1065.79 270C1075.15 274.99 1071.42 279.58 1080 285.88C1213.53 383.9 1243.17 483.35 1350 478.64C1423.17 475.41 1384.4 368.56 1440 270C1519.4 129.24 1533.9 0 1620 0C1703.04 0 1744.95 125.57 1778.28 270C1807.26 395.57 1720.69 411.96 1744.62 540C1771.15 681.96 1909.79 700.73 1879.2 810C1847.48 923.3 1735.93 985.14 1620 985.14C1537.4 985.14 1542.32 903.33 1482.13 810C1407.32 693.99 1426.33 566.47 1350 566.47C1264.72 566.47 1254.11 687.97 1158.92 810C1119.11 861.03 1135.21 907.85 1080 912.6C960.75 922.85 927.35 803.25 810 840C660.1 886.95 678.46 961.82 545.51 1080C543.46 1081.82 542.76 1080 540 1080C405 1080 405 1080 270 1080C135 1080 67.5 1147.5 0 1080C-67.5 1012.5 0 945 0 810C0 675 0 675 0 540C0 455.08 -27.42 370.16 0 370.16C33.8 370.16 104.01 444.47 122.44 540C146.44 664.39 48.09 692.26 84.86 810C121.87 928.51 190.54 1012.5 270 1012.5C336.22 1012.5 305.05 895.9 376.23 810C440.05 732.99 448 698.52 540 686.67C664.89 670.59 700.44 791.58 810 754.14C915.05 718.24 969.23 640.25 969.23 540C969.23 457.45 898.78 451.6 810 388.54C708.71 316.6 697.95 331.84 589.09 270C562.95 255.15 563.52 235.16 540 235.16C519.69 235.16 524.76 259.1 501.43 270C389.76 322.16 380.93 361.27 270 361.27C196.28 361.27 187.2 329.48 132.13 270" stroke="rgba(120, 109, 70, 0.18)" stroke-width="2"></path><path d="M1980 1080C1980 1042.5 2103.75 945 2160 945C2193.75 945 2198.57 1051.07 2160 1080C2108.57 1118.57 1980 1110 1980 1080" stroke="rgba(120, 109, 70, 0.18)" stroke-width="2"></path><path d="M270 258.26C174.31 254.31 117.69 85.63 117.69 0C117.69 -43.5 193.85 0 270 0C405 0 405 0 540 0C545.74 0 551.49 -3.09 551.49 0C551.49 5.62 547.68 10.38 540 17.42C406.93 139.51 385.47 263.02 270 258.26" stroke="rgba(120, 109, 70, 0.18)" stroke-width="2"></path><path d="M1572.35 270C1578.87 228.8 1597.21 198.53 1620 198.53C1641.98 198.53 1659.47 230.01 1661.9 270C1669.85 400.74 1620.87 409.41 1640.77 540C1662.02 679.41 1751.04 693.46 1744.2 810C1740.65 870.42 1675.55 893.92 1620 893.92C1580.42 893.92 1561.59 860.12 1553.94 810C1534.59 683.16 1561.4 675.05 1566 540C1570.6 405.05 1551.87 399.54 1572.35 270" stroke="rgba(120, 109, 70, 0.18)" stroke-width="2"></path><path d="M0 479.03C12.13 479.03 43.95 506.08 43.95 540C43.95 604.07 11.26 675 0 675C-10.71 675 0 607.5 0 540C0 509.51 -9.84 479.03 0 479.03" stroke="rgba(120, 109, 70, 0.18)" stroke-width="2"></path><path d="M486.89 810C486.89 784.73 510.63 770 540 770C589.44 770 644.52 780.88 644.52 810C644.52 845.88 584.84 900 540 900C506.03 900 486.89 849.73 486.89 810" stroke="rgba(120, 109, 70, 0.18)" stroke-width="2"></path><path d="M2087.14 1080C2087.14 1064.82 2137.23 1025.36 2160 1025.36C2173.66 1025.36 2175.61 1068.29 2160 1080C2139.18 1095.61 2087.14 1092.14 2087.14 1080" stroke="rgba(120, 109, 70, 0.18)" stroke-width="2"></path></g><defs><mask id="SvgjsMask1023"><rect width="1920" height="1080" fill="#ffffff"></rect></mask></defs></svg>