<svg xmlns="http://www.w3.org/2000/svg" version="1.1" xmlns:xlink="http://www.w3.org/1999/xlink" xmlns:svgjs="http://svgjs.dev/svgjs" width="1920" height="1080" preserveAspectRatio="none" viewBox="0 0 1920 1080"><g mask="url(&quot;#SvgjsMask1032&quot;)" fill="none"><path d="M41.54 270C41.54 265.18 2.97 277.59 0 258.26C-17.8 142.59 -66 63.13 0 0C69 -66 135 0 270 0C380.46 0 383.72 -11.75 490.91 0C518.72 3.05 512.08 25.99 540 29.59C671.63 46.54 675.35 45.66 810 41.09C945.35 36.49 945.94 29.8 1080 11.25C1094.44 9.25 1092.5 0.6 1107 0C1227.5 -5.02 1228.5 0 1350 0C1485 0 1485 0 1620 0C1751.03 0 1839.47 -64.9 1882.06 0C1928.06 70.1 1794.35 150.6 1797.19 270C1798.32 317.53 1846.35 333.87 1890 333.87C1925.39 333.87 1953.93 311.57 1955.27 270C1959.33 144.63 1848.06 69.55 1900.8 0C1950.43 -65.45 2096.52 -66.12 2160 0C2226.12 68.88 2160 135 2160 270C2160 405 2160 405 2160 540C2160 675 2160 675 2160 810C2160 945 2221.13 1006.13 2160 1080C2109.41 1141.13 2030.87 1109.47 1936.55 1080C1895.87 1067.29 1928 995.63 1890 995.63C1803.48 995.63 1790.74 1047.74 1687.5 1080C1655.74 1089.93 1653.75 1080 1620 1080C1523.57 1080 1427.14 1102.76 1427.14 1080C1427.14 1054.55 1552.18 1056.6 1620 983.57C1677.54 921.6 1677.86 896.79 1677.86 810C1677.86 723.21 1652.52 721.79 1620 636.43C1601.09 586.79 1607.94 581.17 1575 540C1472.94 412.42 1440.87 298.93 1350 298.93C1278 298.93 1319.19 432.37 1249.25 540C1184.19 640.13 1166.6 629.28 1080 714.46C1029.35 764.28 974.75 757.42 974.75 810C974.75 874.19 1012.58 896.4 1080 948C1188.96 1031.4 1327.5 1044.94 1327.5 1080C1327.5 1110.94 1203.75 1080 1080 1080C1012.5 1080 1004.86 1102.71 945 1080C869.86 1051.5 878.36 977.59 810 977.59C738.42 977.59 744.29 1049.97 665.12 1080C609.29 1101.18 602.56 1080 540 1080C405 1080 405 1080 270 1080C157.5 1080 156.93 1084.66 45 1080C21.93 1079.04 3.42 1089.27 0 1068.75C-19.08 954.27 0 939.38 0 810C0 675 0 675 0 540C0 408.65 -17.9 393.62 0 277.3C2.87 258.62 41.54 274.7 41.54 270" stroke="rgba(255, 193, 7, 0.18)" stroke-width="2"></path><path d="M540 742.5C464.49 742.5 382.5 763.22 382.5 810C382.5 867.85 469.3 951.75 540 951.75C597.78 951.75 639.47 871.76 639.47 810C639.47 767.13 592.97 742.5 540 742.5" stroke="rgba(255, 232, 193, 1)" stroke-width="2"></path><path d="M270 118.8C164.86 69.79 95.55 153.56 0 111.52C-39.45 94.16 -39.46 16.3 0 0C95.54 -39.46 135 0 270 0C303.75 0 307.52 -13.55 337.5 0C442.52 47.47 431.4 78.88 540 122.05C667.65 172.79 676.09 192.06 810 187.83C946.09 183.53 959.33 82.97 1080 105C1184.33 124.05 1244.4 170.97 1260 270C1278.66 388.47 1215.83 412.6 1148.51 540C1125.83 582.91 1115.89 577 1080 610.62C971.8 712 969.03 709.12 860.34 810C834.03 834.42 835.39 861.21 810 861.21C784.17 861.21 787.21 831.62 757.89 810C652.21 732.08 650.94 732.94 540 662.14C439.39 597.94 381.73 632.01 334.8 540C281.73 435.94 360.04 400.24 340 270C327.64 189.64 334.86 149.03 270 118.8" stroke="rgba(255, 232, 193, 1)" stroke-width="2"></path><path d="M1350 22.5C1342.32 10.32 1332 6.92 1332 0C1332 -4.33 1341 0 1350 0C1485 0 1485 0 1620 0C1701.39 0 1769.75 -49.08 1782.79 0C1805.61 85.92 1745.88 138.9 1691.72 270C1664.48 335.93 1663.18 394.05 1620 394.05C1568.47 394.05 1552.32 338.82 1502.31 270C1417.32 153.04 1427.47 145.32 1350 22.5" stroke="rgba(255, 193, 7, 0.18)" stroke-width="2"></path><path d="M2029.45 270C2071.77 152.01 1991.09 92.47 2035.8 0C2056.36 -42.53 2140.43 -42.53 2160 0C2202.53 92.47 2160 135 2160 270C2160 405 2160 405 2160 540C2160 618.49 2199.08 640.53 2160 696.98C2105.62 775.53 2067.32 754.85 1973.08 810C1932.32 833.86 1929.03 855 1890 855C1861.77 855 1855.9 839.01 1838.57 810C1761.81 681.51 1687.23 654.49 1701.82 540C1712.94 452.71 1801.24 479.6 1890 406.45C1965.05 344.6 1998.87 355.24 2029.45 270" stroke="rgba(255, 193, 7, 0.18)" stroke-width="2"></path><path d="M0 368.51C66.24 368.51 215.08 443.21 215.08 540C215.08 658.45 60.78 798.98 0 798.98C-46.76 798.98 0 669.49 0 540C0 454.25 -41.3 368.51 0 368.51" stroke="rgba(255, 232, 193, 1)" stroke-width="2"></path><path d="M2014.14 1080C2014.14 1018.93 2119.51 884.77 2160 884.77C2192.44 884.77 2201.74 1024.13 2160 1080C2128.81 1121.74 2014.14 1116.55 2014.14 1080" stroke="rgba(255, 232, 193, 1)" stroke-width="2"></path><path d="M465 270C474.01 228.21 498.38 214.52 540 214.52C613.77 214.52 637.53 217.99 695.77 270C772.53 338.55 755.75 455.63 810 455.63C862.36 455.63 837.21 338.3 909 270C972.21 209.86 1000.75 198.75 1080 198.75C1125.11 198.75 1157.73 225.67 1157.73 270C1157.73 356.3 1144.24 388.88 1080 460C1022.3 523.88 994.1 495.11 913.85 540C859.1 570.63 869.18 604.43 810 611.05C682.26 625.33 670.76 609.1 540 581.79C500.66 573.57 478.51 576.21 469.8 540C441.01 420.31 438.91 390.95 465 270" stroke="rgba(255, 193, 7, 0.18)" stroke-width="2"></path><path d="M1620 180C1574.21 180 1509.23 59.05 1509.23 0C1509.23 -30.95 1564.61 0 1620 0C1651.76 0 1683.53 -22.47 1683.53 0C1683.53 67.53 1661.36 180 1620 180" stroke="rgba(255, 193, 7, 0.18)" stroke-width="2"></path><path d="M2103.63 270C2103.63 147.56 2145.72 25.71 2160 25.71C2173.91 25.71 2160 147.86 2160 270C2160 405 2173.94 540 2160 540C2145.76 540 2103.63 404.7 2103.63 270" stroke="rgba(255, 232, 193, 1)" stroke-width="2"></path><path d="M0 459.73C31.01 459.73 100.68 494.7 100.68 540C100.68 595.44 28.45 661.22 0 661.22C-21.89 661.22 0 600.61 0 540C0 499.87 -19.33 459.73 0 459.73" stroke="rgba(255, 232, 193, 1)" stroke-width="2"></path><path d="M1804.09 540C1804.09 500.11 1840.94 479.03 1890 479.03C2018.9 479.03 2160 490.3 2160 540C2160 595.39 2004.21 689.21 1890 689.21C1826.26 689.21 1804.09 605.2 1804.09 540" stroke="rgba(255, 232, 193, 1)" stroke-width="2"></path><path d="M2091.72 1080C2091.72 1051.42 2141.04 988.62 2160 988.62C2175.18 988.62 2179.54 1053.85 2160 1080C2145.4 1099.54 2091.72 1097.11 2091.72 1080" stroke="rgba(255, 193, 7, 0.18)" stroke-width="2"></path></g><defs><mask id="SvgjsMask1032"><rect width="1920" height="1080" fill="#ffffff"></rect></mask></defs></svg>