<svg width="205" height="66" viewBox="0 0 205 66" fill="none" xmlns="http://www.w3.org/2000/svg">
<path d="M61.4035 18.857C60.5972 25.1239 60.2026 32.2264 52.7056 42.8801C47.4299 50.3771 38.106 58.2688 33.7656 61.4254C30.609 51.9555 32.9765 32.2264 37.3169 27.8859C45.9977 18.0214 52.8964 18.8569 61.4035 18.857Z" fill="#1E1E1E"/>
<path d="M33.6602 61.4822C29.5198 59.9452 22.5026 53.0323 14.1172 44.2029C5.44574 32.7558 3.4003 23.5718 5.80206 19.4234C10.4973 18.0394 15.6838 22.8597 26.445 31.3069C35.2241 39.7403 38.5537 58.2151 33.6602 61.4822Z" fill="#1E1E1E"/>
<rect x="8.95691" y="9.31021" width="13.2494" height="9.83847" rx="4" transform="rotate(-44.6432 8.95691 9.31021)" fill="#1E1E1E"/>
<path d="M13.2019 15.0084C11.7788 18.1915 8.0299 24.7822 6.12153 23.929C4.52831 23.1332 4.56656 15.6539 6.14489 12.4973C10.8799 7.36769 10.8799 6.97311 12.3234 7.69996C14.2317 8.55318 14.6251 11.8253 13.2019 15.0084Z" fill="#1E1E1E"/>
<path d="M8.1932 19.5772L13.642 14.0756C13.1402 17.3371 14.0628 20.6571 16.1753 23.1921L16.7986 23.9401L8.1932 19.5772Z" fill="#1E1E1E"/>
<path d="M78.1333 56.5167L72.15 41H74.7L77.6667 48.7C77.7889 49 77.9 49.3056 78 49.6167C78.1 49.9167 78.2056 50.2833 78.3167 50.7167C78.4389 50.2833 78.5556 49.9167 78.6667 49.6167C78.7778 49.3056 78.8889 49 79 48.7L82.15 40.5L85.3 48.7C85.4111 48.9889 85.5278 49.2889 85.65 49.6C85.7722 49.9 85.8889 50.2722 86 50.7167C86.1222 50.2722 86.2333 49.9 86.3333 49.6C86.4444 49.2889 86.5556 48.9889 86.6667 48.7L89.6 41H92.0167L86.05 56.5167L82.7667 47.95C82.6556 47.6611 82.5444 47.3667 82.4333 47.0667C82.3222 46.7556 82.2111 46.3778 82.1 45.9333C81.9778 46.3778 81.8611 46.75 81.75 47.05C81.6389 47.35 81.5278 47.65 81.4167 47.95L78.1333 56.5167ZM96.7396 56.2667C95.7618 56.2667 94.8674 56.0333 94.0562 55.5667C93.2451 55.0889 92.6007 54.45 92.1229 53.65C91.6451 52.85 91.4062 51.9667 91.4062 51C91.4062 50.0222 91.6451 49.1389 92.1229 48.35C92.6007 47.55 93.2451 46.9167 94.0562 46.45C94.8674 45.9722 95.7618 45.7333 96.7396 45.7333C97.7285 45.7333 98.6229 45.9722 99.4229 46.45C100.234 46.9167 100.878 47.55 101.356 48.35C101.834 49.1389 102.073 50.0222 102.073 51C102.073 51.9667 101.834 52.85 101.356 53.65C100.878 54.45 100.234 55.0889 99.4229 55.5667C98.6229 56.0333 97.7285 56.2667 96.7396 56.2667ZM96.7396 54.1167C97.3063 54.1167 97.8229 53.9778 98.2896 53.7C98.7563 53.4111 99.1229 53.0333 99.3896 52.5667C99.6674 52.1 99.8063 51.5778 99.8063 51C99.8063 50.4222 99.6674 49.9 99.3896 49.4333C99.1229 48.9667 98.7563 48.5944 98.2896 48.3167C97.8229 48.0278 97.3063 47.8833 96.7396 47.8833C96.1729 47.8833 95.6563 48.0278 95.1896 48.3167C94.7229 48.5944 94.3507 48.9667 94.0729 49.4333C93.8063 49.9 93.6729 50.4222 93.6729 51C93.6729 51.5778 93.8063 52.1 94.0729 52.5667C94.3507 53.0333 94.7174 53.4111 95.1729 53.7C95.6396 53.9778 96.1618 54.1167 96.7396 54.1167ZM104.17 56V46H106.304V47.7667C106.659 47.1889 107.115 46.7333 107.67 46.4C108.226 46.0667 108.887 45.9 109.654 45.9L110.187 48.0833C109.976 48.0167 109.737 47.9833 109.47 47.9833C108.581 47.9833 107.865 48.2667 107.32 48.8333C106.787 49.4 106.52 50.2111 106.52 51.2667V56H104.17ZM116.403 56.2667C115.325 56.2667 114.364 56.0333 113.519 55.5667C112.675 55.1 112.014 54.4611 111.536 53.65C111.069 52.8389 110.836 51.9222 110.836 50.9C110.836 49.9222 111.064 49.0444 111.519 48.2667C111.986 47.4889 112.608 46.8722 113.386 46.4167C114.175 45.9611 115.041 45.7333 115.986 45.7333C116.941 45.7333 117.803 45.9556 118.569 46.4C119.347 46.8444 119.964 47.45 120.419 48.2167C120.875 48.9722 121.103 49.8333 121.103 50.8V51.6833H114.786C114.508 51.6833 114.23 51.6722 113.953 51.65C113.675 51.6167 113.397 51.5778 113.119 51.5333C113.253 52.3 113.619 52.9389 114.219 53.45C114.83 53.9611 115.575 54.2167 116.453 54.2167C117.086 54.2167 117.664 54.0833 118.186 53.8167C118.708 53.5389 119.136 53.1833 119.469 52.75L120.036 55.0833C119.547 55.4722 118.991 55.7667 118.369 55.9667C117.747 56.1667 117.091 56.2667 116.403 56.2667ZM113.069 50.0333C113.647 49.9222 114.219 49.8667 114.786 49.8667H117.319C117.597 49.8667 117.864 49.8778 118.119 49.9C118.386 49.9222 118.641 49.95 118.886 49.9833C118.719 49.3056 118.369 48.7556 117.836 48.3333C117.314 47.9 116.691 47.6833 115.969 47.6833C115.269 47.6833 114.653 47.9056 114.119 48.35C113.586 48.7944 113.236 49.3556 113.069 50.0333ZM123.108 61V46H125.191V47.15C125.613 46.7278 126.108 46.4 126.674 46.1667C127.241 45.9222 127.852 45.8 128.508 45.8C129.43 45.8 130.269 46.0333 131.024 46.5C131.78 46.9667 132.38 47.5944 132.824 48.3833C133.28 49.1722 133.508 50.0444 133.508 51C133.508 51.9556 133.28 52.8278 132.824 53.6167C132.38 54.4056 131.78 55.0333 131.024 55.5C130.269 55.9667 129.43 56.2 128.508 56.2C127.919 56.2 127.363 56.1056 126.841 55.9167C126.33 55.7167 125.869 55.4444 125.458 55.1V61H123.108ZM128.224 54.1C128.78 54.1 129.286 53.9611 129.741 53.6833C130.208 53.4056 130.574 53.0333 130.841 52.5667C131.119 52.1 131.258 51.5778 131.258 51C131.258 50.4333 131.119 49.9167 130.841 49.45C130.574 48.9722 130.213 48.5944 129.758 48.3167C129.302 48.0389 128.791 47.9 128.224 47.9C127.669 47.9 127.158 48.0389 126.691 48.3167C126.236 48.5944 125.869 48.9667 125.591 49.4333C125.324 49.9 125.191 50.4222 125.191 51C125.191 51.5667 125.324 52.0889 125.591 52.5667C125.869 53.0333 126.236 53.4056 126.691 53.6833C127.147 53.9611 127.658 54.1 128.224 54.1ZM138.533 56.2667C137.933 56.2667 137.311 56.1667 136.667 55.9667C136.033 55.7556 135.517 55.4389 135.117 55.0167L135.717 52.6667C136.039 53.1444 136.467 53.5444 137 53.8667C137.533 54.1889 138.089 54.35 138.667 54.35C139.144 54.35 139.494 54.2444 139.717 54.0333C139.939 53.8222 140.05 53.5667 140.05 53.2667C140.05 52.9333 139.933 52.6889 139.7 52.5333C139.467 52.3667 139.244 52.2444 139.033 52.1667L137.65 51.65C137.372 51.5389 137.044 51.3833 136.667 51.1833C136.3 50.9722 135.978 50.6778 135.7 50.3C135.422 49.9222 135.283 49.4278 135.283 48.8167C135.283 48.2611 135.417 47.75 135.683 47.2833C135.961 46.8167 136.356 46.4444 136.867 46.1667C137.378 45.8778 137.989 45.7333 138.7 45.7333C139.311 45.7333 139.906 45.8389 140.483 46.05C141.072 46.2611 141.533 46.5444 141.867 46.9L141.283 49.2167C140.961 48.7278 140.556 48.3444 140.067 48.0667C139.589 47.7889 139.111 47.65 138.633 47.65C138.222 47.65 137.911 47.75 137.7 47.95C137.489 48.15 137.383 48.3833 137.383 48.65C137.383 48.85 137.456 49.0389 137.6 49.2167C137.744 49.3833 137.978 49.5278 138.3 49.65L139.617 50.15C139.928 50.2611 140.278 50.4222 140.667 50.6333C141.067 50.8444 141.411 51.1444 141.7 51.5333C141.989 51.9222 142.133 52.45 142.133 53.1167C142.133 54.05 141.794 54.8111 141.117 55.4C140.45 55.9778 139.589 56.2667 138.533 56.2667Z" fill="black"/>
<rect x="57" y="42" width="10" height="10" rx="5" fill="black" fill-opacity="0.2"/>
</svg>
