<svg xmlns="http://www.w3.org/2000/svg" xmlns:xlink="http://www.w3.org/1999/xlink" width="1920" zoomAndPan="magnify" viewBox="0 0 1440 1439.999935" height="1920" preserveAspectRatio="xMidYMid meet" version="1.0"><path fill="#ffffff" d="M 925.625 1206.402344 C 687.601562 1061.164062 448.136719 918.527344 207.308594 778.640625 C 151.503906 746.230469 91.3125 752.664062 43.773438 798.839844 C 11.480469 830.203125 0.449219 870.25 21.929688 916.460938 C 33.746094 942.226562 43.050781 968.316406 71.609375 983.589844 C 205.253906 1055.070312 335.726562 1133.890625 471.613281 1199.871094 C 594.523438 1259.546875 721.589844 1310.710938 849.671875 1355.902344 C 898.554688 1373.152344 964.644531 1386.039062 991.839844 1314.28125 C 1014.992188 1253.195312 960.75 1227.839844 925.621094 1206.402344 Z M 925.625 1206.402344 " fill-opacity="1" fill-rule="nonzero"/><path fill="#ffffff" d="M 1145.167969 1082.386719 C 1043.9375 828.007812 919.46875 580.773438 826.878906 319.882812 C 800.398438 245.269531 716.972656 190.15625 631.921875 242.484375 C 551.027344 292.25 542.714844 371.65625 591.253906 460.015625 C 718.492188 691.640625 851.554688 919.464844 999.128906 1138.847656 C 1029.796875 1184.433594 1047.578125 1247.65625 1121.695312 1219.28125 C 1201.984375 1188.539062 1135.433594 1131.160156 1145.167969 1082.386719 Z M 1145.167969 1082.386719 " fill-opacity="1" fill-rule="nonzero"/><path fill="#ffffff" d="M 1418.738281 182.21875 C 1413.253906 107.246094 1376.542969 53.933594 1303.972656 58 C 1228.875 62.203125 1207 131.882812 1204.105469 197.277344 C 1194.292969 418.808594 1198.125 639.957031 1237.191406 859.226562 C 1246.859375 918.027344 1255.613281 977.003906 1266.496094 1035.578125 C 1275.054688 1081.660156 1276.820312 1137.015625 1342.503906 1138.265625 C 1412.449219 1139.597656 1430.71875 1080.808594 1430.75 1031.9375 C 1430.921875 748.699219 1439.4375 465.25 1418.738281 182.222656 Z M 1418.738281 182.21875 " fill-opacity="1" fill-rule="nonzero"/></svg>