<svg width="1728" height="560" viewBox="0 0 1728 560" fill="none" xmlns="http://www.w3.org/2000/svg">
<g clip-path="url(#clip0_604_19)">
<mask id="mask0_604_19" style="mask-type:luminance" maskUnits="userSpaceOnUse" x="0" y="0" width="1729" height="560">
<path d="M1728 0H0V560H1728V0Z" fill="white"/>
</mask>
<g mask="url(#mask0_604_19)">
<path d="M0 252C69.12 226.8 207.36 147.2 345.6 126C483.84 104.8 552.96 158 691.2 146C829.44 134 898.56 49 1036.8 66C1175.04 83 1244.16 240 1382.4 231C1520.64 222 1658.88 63 1728 21V560H0V252Z" fill="#FFA62F"/>
<path d="M0 433C115.2 413.4 345.6 331 576 335C806.4 339 921.6 443.6 1152 453C1382.4 462.4 1612.8 396.2 1728 382V560H0V433Z" fill="#FFC96F"/>
</g>
</g>
<defs>
<clipPath id="clip0_604_19">
<rect width="1728" height="560" fill="white"/>
</clipPath>
</defs>
</svg>
